<svg xmlns="http://www.w3.org/2000/svg" width="1024" height="1024" viewBox="0 0 1024 1024"><path fill="#26f7b9" d="M562.728 310.671c5.716-.324 11.911-.296 17.666-.208 20.969.323 42.178-.386 63.12.099 5.69 4.181 13.881 12.691 19.128 17.86l27.875 27.478c2.654 2.637 10.59 11.161 13.025 12.868 19.7 18.237 37.586 34.871 38.522 63.26a67.98 67.98 0 0 1-18.1 47.786c-23.498 25.03-48.871 19.849-79.161 20.735.683 5.19.019 10.952.15 16.302.501 20.342-1.121 35.03-13.566 51.771-22.1 29.73-64.066 35.511-93.139 12.491-9.047-7.164-19.2-17.953-27.364-26.537l59.118-59.039c-.247-15.143-.1-30.34-.211-45.485-.06-8.189.219-16.819-.293-24.952-.622-7.625-.259-14.967-.348-22.395-.263-21.933.431-32.858 12.213-51.79l.234-.81c-8.226-7.666-16.497-28.117-18.869-39.434"/><path fill="#314df7" d="M562.728 310.671c5.716-.324 11.911-.296 17.666-.208 20.969.323 42.178-.386 63.12.099 5.69 4.181 13.881 12.691 19.128 17.86l27.875 27.478c2.654 2.637 10.59 11.161 13.025 12.868 19.7 18.237 37.586 34.871 38.522 63.26a67.98 67.98 0 0 1-18.1 47.786c-23.498 25.03-48.871 19.849-79.161 20.735-1.408-3.124-.848-84.88-.855-95.156-2.454-.972-4.259-1.546-6.449-3.047-11.043-4.473-35.212-31.143-44.786-40.112-3.431-3.214-7.321-8.108-11.35-11.319l.234-.81c-8.226-7.666-16.497-28.117-18.869-39.434"/><path fill="#131f64" d="M581.597 350.105c3.708 2.952 10.254 10.183 13.936 13.879a2648 2648 0 0 0 27.072 26.452c3.694 3.513 13.59 10.48 14.894 11.91-11.043-4.473-35.212-31.143-44.786-40.112-3.431-3.214-7.321-8.108-11.35-11.319z"/><path fill="#f55216" d="M377.859 236.063c-.806-6.549.123-14.472-.149-21.158-.815-20.092 4.662-39.055 19.123-53.555a64.76 64.76 0 0 1 45.84-18.738c32.128.184 46.978 20.311 67.74 41.459-17.283 18.642-38.898 39.158-57.115 57.089l.131 47.5c.007 6.988-.356 17.668.055 24.404.118 9.725-.033 19.663.053 29.344.163 18.15-3.328 28.262-12.913 43.118 6.541 9.334 11.742 16.827 15.525 27.865 1.539 4.49 2.3 8.512 3.654 12.799-3.379.564-20.288.292-24.771.295l-56.471.016c-20.032-18.586-39.392-40.044-59.667-58.237-5.572-6.825-14.353-14.068-20.465-20.618-25.231-27.037-23.586-70.147 4.22-94.983 22.006-19.655 47.733-18.046 75.21-16.6"/><path fill="#314df7" d="M318.894 368.264c-5.572-6.825-14.353-14.068-20.465-20.618-25.231-27.037-23.586-70.147 4.22-94.983 22.006-19.655 47.733-18.046 75.21-16.6.258 29.939.979 64.233.156 93.98 11.059 5.119 18.275 11.192 26.539 20.073 11.276 12.117 24.906 23.363 36.07 35.41 6.541 9.334 11.742 16.827 15.525 27.865 1.539 4.49 2.3 8.512 3.654 12.799-3.379.564-20.288.292-24.771.295l-56.471.016c-20.032-18.586-39.392-40.044-59.667-58.237"/><path fill="#f55216" d="M318.894 368.264c20.275 18.193 39.635 39.651 59.667 58.237l56.471-.016c4.483-.003 21.392.269 24.771-.295 21.132-1.336 49.474-2.035 65.796 13.154 13.771-10.235 26.863-14.3 43.899-14.244.512 8.133.233 16.763.293 24.952.111 15.145-.036 30.342.211 45.485l-59.118 59.039c-2.022 1.564-9.97 9.574-11.93 11.692-16.164 17.467-29.926 28.467-54.939 28.906-18.268.322-33.635-6.314-46.751-19.184-22.289-21.871-19.583-47.527-19.712-76.043l-.772.069c-27.395.243-51.431 3.57-73.801-15.979-24.531-21.439-29.608-58.729-11.726-85.931 6.713-10.211 19.118-20.296 27.641-29.842"/><path fill="#314df7" d="M525.599 439.344c13.771-10.235 26.863-14.3 43.899-14.244.512 8.133.233 16.763.293 24.952.111 15.145-.036 30.342.211 45.485l-59.118 59.039c-2.022 1.564-9.97 9.574-11.93 11.692-16.164 17.467-29.926 28.467-54.939 28.906-18.268.322-33.635-6.314-46.751-19.184-22.289-21.871-19.583-47.527-19.712-76.043 10.222-.877 30.008-.472 40.763-.407 18.376.112 39.276-.49 57.443.271 5.777-17.036 12.884-23.792 25.181-36.194a1444 1444 0 0 1 24.66-24.273"/><path fill="#f55216" d="M510.413 184.071c22.63-21.111 35.917-43.078 70.993-41.497 40.155 1.81 66.977 37.817 63.371 76.438-.496 5.304.315 11.614-.156 17.02 13.189-.021 28.713-.844 41.494.733 52.57 6.486 74.356 73.107 37.953 110.68-6.786 7.004-14.211 14.2-20.526 21.323-2.435-1.707-10.371-10.231-13.025-12.868l-27.875-27.478c-5.247-5.169-13.438-13.679-19.128-17.86-20.942-.485-42.151.224-63.12-.099-5.755-.088-11.95-.116-17.666.208-26.616-.388-44.919 3.508-68.578-11.394-12.138 8.09-25.871 13.774-40.666 13.787-.411-6.736-.048-17.416-.055-24.404l-.131-47.5c18.217-17.931 39.832-38.447 57.115-57.089"/><path fill="#314df7" d="M510.413 184.071c22.63-21.111 35.917-43.078 70.993-41.497 40.155 1.81 66.977 37.817 63.371 76.438-.496 5.304.315 11.614-.156 17.02-30.397.718-63.387.155-94.074.263-8.238 16.673-16.062 24.402-29.368 37.27-9.135 8.834-17.39 17.287-27.029 25.712-12.138 8.09-25.871 13.774-40.666 13.787-.411-6.736-.048-17.416-.055-24.404l-.131-47.5c18.217-17.931 39.832-38.447 57.115-57.089"/><path fill="#0d0d0e" d="m169.827 712.246 30.804.04c18.447.072 34.525-1.315 48.885 12.534 17.743 17.11 18.034 48.892.961 66.498-15.761 16.252-37.508 13.262-58.102 13.384l-11.182.157c-.503 12.234-.004 24.545-.147 36.792-.059 4.978.468 11.11-2.667 15.338-6.203 8.366-20.679 4.383-20.996-6.259-.368-7.437-.28-14.767-.292-22.192l.108-43.453q.059-17.361-.065-34.722c-.089-9.184-.282-18.471.41-27.629.232-3.065 1.189-5.627 3.531-7.682 2.604-2.285 5.513-2.546 8.752-2.806m11.364 20.255c.12 16.96-.178 34.234-.154 51.286 11.544.032 36.015 1.663 45.423-2.684 3.687-2.049 5.689-3.236 8.467-6.581 11.02-13.266 5.91-37.475-12.365-41.017-9.817-1.902-22.634-1.471-32.784-1.242z"/><path fill="#0d0d0e" d="M740.832 752.184c29.259-2.296 53.005 15.345 56.768 44.929 4.214 33.129-9.719 60.96-44.98 65.216-13.557 1.219-26.334-2.11-37.617-10.192-23.96-17.164-24.991-59.375-8.18-81.637 8.208-10.87 20.396-16.559 34.009-18.316m6.14 91.14c8.329-.682 15.784-2.446 21.272-9.36 11.699-14.739 10.449-45.131-4.507-57.422-4.062-3.338-11.05-5.864-16.304-5.304-7.097.063-15.451 2.308-20.089 7.808-17.575 20.843-12.797 62.466 19.628 64.278"/><path fill="#0d0d0e" d="M314.7 752.219q2.524-.156 5.052-.188c11.406-.054 22.948 1.881 31.333 10.19a31.67 31.67 0 0 1 8.497 15.277c1.561 6.444 1.314 13.428 1.235 20.028-.177 16.121-.251 31.848.11 48.006.165 7.365-1.109 16.166-10.847 15.921-3.894-.098-5.96-1.854-8.451-4.676-1.008-3.735-1.117-6.627-1.125-10.433-16.56 22.608-53.542 21.659-66.192-4.066-3.215-10.2-2.88-21.845 4.141-30.541 9.061-11.223 25.159-12.842 38.544-13.905 5.967-.473 15.367-1.725 19.386-6.853 4.283-6.467 1.275-13.01-4.645-17.196-7.585-5.362-22.688-5.134-29.847.877-3.393 3.054-8.53 15.736-14.118 15.414-14.07-.81-12.846-15.653-6.03-23.218 9.504-10.547 20.106-13.338 32.957-14.637m-14.93 89.389c11.915 7.378 26.758 4.655 34.1-7.494 3.608-5.97 5.578-18.836 4.994-25.689l-.628.363c-10.221 5.805-22.27 3.071-32.777 7.564-10.824 4.628-14.216 16.496-5.689 25.256"/><path fill="#0d0d0e" d="M489.75 713.003c6.876-.469 9.625.804 13.147 6.61.662 7.888.14 21.878.159 30.345.034 15.013.319 29.867.449 44.86 14.457-12.668 27.606-27.353 42.502-39.582 6.316-5.573 16.988.309 15.757 7.801-1.591 9.687-20.281 24.094-27.225 30.055 1.823 4.03 6.513 11.524 8.877 15.432l15.092 24.893c3.67 6.055 9.245 13.235 8.713 20.423l-.248.512c-1.197 2.522-2.123 4.239-4.522 5.773-8.613 5.51-14.81-4.004-18.283-10.269-7.893-14.24-17.359-27.978-25.109-42.159a582 582 0 0 1-16.003 15.221c-.128 8.089 1.534 24.239-.705 31.256-.882 2.763-2.653 5.418-5.353 6.669-2.882 1.337-6.231.806-9.11-.258-2.581-.953-4.304-3.047-5.363-5.542-2.462-5.796-.642-87.874-.584-100.755.047-10.691-.628-21.645.118-32.307.088-1.254.298-2.464.813-3.619 1.374-3.08 3.876-4.234 6.878-5.359"/><path fill="#0d0d0e" d="M633.873 751.701c12.815-.874 23.937 2.185 32.316 12.426a38.9 38.9 0 0 1 7.921 16.408c1.953 9.348.647 30.038 1 40.485-.169 10.404.556 20.923-.133 31.301-.754 11.359-17.65 12.406-20.824 1.921-1.46-4.824-1.01-10.888-.987-15.959l.048-28.463c.095-15.864 2.541-35.335-18.26-38.956a23.91 23.91 0 0 0-17.916 3.849l-.484.348c-16.121 14.963-7.475 54.034-9.5 74.257-1.075 10.738-4.435 12.623-14.353 12.12-6.741-3.989-7.22-6.237-7.239-13.937-.062-24.294-.001-48.596-.062-72.889-.012-4.643-.123-9.38.378-13.992.884-7.952 12.5-10.852 17.638-5.161 3.369 3.702 2.702 9.353 2.59 13.961 6.611-11.667 14.694-16.466 27.867-17.719"/><path fill="#0d0d0e" d="M420.645 832.893c4.482-15.99 9.749-31.763 15.288-47.683 2.387-6.861 7.816-27.165 13.832-31.445 6.168-4.388 17.572 2.185 15.05 11.5-1.909 7.052-5.07 14.546-7.757 21.834a3547 3547 0 0 0-16.046 44.615c-1.228 2.789-1.96 5.975-3.033 8.933l-9.847 27.698c-3.701 10.136-9.398 18.917-19.543 23.466-10.477 4.698-36.706 8.751-30.637-11.019 4.203-6.52 13.794-3.317 20.361-5.683 7.486-2.697 10.972-7.921 9.036-15.924-2.033-8.402-5.197-16.676-8.042-24.914l-15.86-45.272c-2.534-7.042-5.177-14.069-7.823-21.051-1.127-2.973-1.149-7.134.467-9.924 1.956-3.378 3.837-4.185 7.373-5.31 11.006.625 10.928 5.747 14.208 14.98 7.696 21.666 14.728 43.748 22.973 65.199"/><path fill="#0d0d0e" d="M833.119 714.55c11.233-.314 13.529 6.035 13.222 16.166-.236 7.804-.335 15.878.124 23.673 6.846-.157 32.862-2.846 21.201 14.542-2.184 3.257-16.741 2.04-21.153 1.921.029 11.404-2.539 64.578 1.756 69.713 2.368 2.83 13.345 1.771 17.05 2.03 2.734 1.694 3.295 2.39 5.142 5.012.121 5.91.475 7.73-4.14 11.958-3.237 1.79-5.1 2.016-8.773 2.182-34.989 1.588-32.37-19.902-32.375-46.462l-.18-44.314c-6.626.358-25.866 2.787-16.952-14.438 1.716-3.314 12.596-2.519 16.776-2.413.421-6.642.063-13.452.119-20.115.074-8.785-.956-15.376 8.183-19.455"/></svg>