<svg xmlns="http://www.w3.org/2000/svg" width="1024" height="1024" viewBox="0 0 1024 1024"><path fill="#314cf6" d="m563.205 447.475 80.964-.393c5.666 4.744 11.57 11.004 16.9 16.299l26.326 26.12c4.033 3.993 11.735 11.89 16.056 15.187 20.383 20.524 38.436 33.457 38.326 65.68a63.97 63.97 0 0 1-19.559 46.233c-20.712 20.374-41.843 19.061-68.08 19.003-2.716.033-6.513.198-9.14.089.556 20.372 2.356 37.748-6.398 56.555-19.241 41.334-74.055 50.425-105.984 18.151-3.93-3.972-9.148-8.768-13.337-12.474l-7.419-8.083a2599 2599 0 0 1 51.557-51.589c2.222-2.082 4.564-4.547 6.729-6.731-.523-6.352-.261-17.639-.3-24.326l-.35-46.234c-.218-6.667-.073-13.467-.136-20.103-.161-17.142-.196-28.617 7.232-44.525 1.69-3.457 3.066-5.86 5.354-8.925-2.062-3.271-4.87-6.768-7.063-10.273-6.313-10.09-8.841-18.436-11.678-29.661"/><path fill="#26f5b7" d="M576.592 496.334c3.839 2.056 9.467 9.216 13.002 12.613 14.788 14.209 28.401 29.277 45.755 40.501 2.386 1.544 6.557 4.571 8.842 5.674l.133 59.549c.026 3.303-.042 18.571.674 21.022.556 20.372 2.356 37.748-6.398 56.555-19.241 41.334-74.055 50.425-105.984 18.151-3.93-3.972-9.148-8.768-13.337-12.474l-7.419-8.083a2599 2599 0 0 1 51.557-51.589c2.222-2.082 4.564-4.547 6.729-6.731-.523-6.352-.261-17.639-.3-24.326l-.35-46.234c-.218-6.667-.073-13.467-.136-20.103-.161-17.142-.196-28.617 7.232-44.525"/><path fill="#19cb99" d="M563.417 638.253c2.222-2.082 4.564-4.547 6.729-6.731.694 6.048 1.405 10.817-2.746 15.495-3.889 4.384-8.021 8.444-12.113 12.616a2382 2382 0 0 0-24.54 25.214c-3.305 3.479-8.867 9.198-11.468 13.078l-7.419-8.083a2599 2599 0 0 1 51.557-51.589"/><path fill="#19cb99" d="M581.946 487.409c3.424 3.88 7.382 7.843 11.143 11.41 12.467 11.829 24.011 24.914 37.304 35.801 4.361 3.571 9.085 5.45 13.643 8.289l.155 12.213c-2.285-1.103-6.456-4.13-8.842-5.674-17.354-11.224-30.967-26.292-45.755-40.501-3.535-3.397-9.163-10.557-13.002-12.613 1.69-3.457 3.066-5.86 5.354-8.925"/><path fill="#2339b9" d="M644.036 542.909c12.371 9.029 9.224 23.228 9.724 36.655.69 18.505-.502 37.585.378 56.04-2.716.033-6.513.198-9.14.089-.716-2.451-.648-17.719-.674-21.022l-.133-59.549z"/><path fill="#314cf6" d="M378.666 374.337c-.556-30.664-1.422-59.422 25.952-79.912a65.89 65.89 0 0 1 49.669-12.643c20.01 2.943 31.599 13.287 45.027 27.512 3.572 3.785 8.881 8.753 11.878 12.739l-36.193 36.476c-6.166 6.171-15.566 14.939-20.966 21.414l.065 45.567c.01 7.265.314 17.013-.061 24.121-.017 23.508 2.981 43.282-7.634 64.589-1.528 2.544-3.132 5.395-4.881 7.76l.546.864c2.184 3.426 5.174 6.798 7.313 10.29 5.685 9.28 8.413 18.9 10.853 29.326a7591 7591 0 0 0-80.56.085c-6.477-5.12-15.998-15.251-22.172-21.335a4166 4166 0 0 1-37.416-36.958c-4.561-5.452-12.599-12.975-18-17.994-27.034-25.121-27.204-67.703-.649-93.254 18.194-17.506 35.354-19.015 59.184-18.805q9.023-.03 18.045.158"/><path fill="#f35618" d="M378.666 374.337c-.556-30.664-1.422-59.422 25.952-79.912a65.89 65.89 0 0 1 49.669-12.643c20.01 2.943 31.599 13.287 45.027 27.512 3.572 3.785 8.881 8.753 11.878 12.739l-36.193 36.476c-6.166 6.171-15.566 14.939-20.966 21.414l.065 45.567c.01 7.265.314 17.013-.061 24.121-.017 23.508 2.981 43.282-7.634 64.589-3.001-3.012-5.698-6.53-8.785-9.58-15.991-15.8-31.148-33.75-50.51-45.513-2.744-1.668-5.431-3.27-8.134-4.96l.076-49.412c-.001-9.596.218-20.91-.384-30.398"/><path fill="#ca460c" d="M378.974 454.147c2.703 1.69 5.39 3.292 8.134 4.96 19.362 11.763 34.519 29.713 50.51 45.513 3.087 3.05 5.784 6.568 8.785 9.58-1.528 2.544-3.132 5.395-4.881 7.76-2.956-3.915-12.949-13.397-16.923-16.997-12.926-11.708-29.217-31.716-45.585-37.551z"/><path fill="#2339b9" d="M360.621 374.179q9.023-.03 18.045.158c.602 9.488.383 20.802.384 30.398l-.076 49.412.04 13.265c-11.571-5.529-8.823-31.116-8.795-42.292l.171-50.49c-2.139.005-8.308.352-9.769-.451"/><path fill="#f35618" d="M320.086 504.232a4166 4166 0 0 0 37.416 36.958c6.174 6.084 15.695 16.215 22.172 21.335q40.28-.256 80.56-.085c20.182-.738 40.63-1.734 58.963 7.736 3.165 1.562 5.116 2.999 8.006 5.018 11.069-8.164 22.286-11.52 35.593-13.447 1.279-.287 5.208-.618 6.7-.785l.35 46.234c.039 6.687-.223 17.974.3 24.326-2.165 2.184-4.507 4.649-6.729 6.731a2599 2599 0 0 0-51.557 51.589c-21.566 20.03-33.495 40.011-66.868 40.069a64.99 64.99 0 0 1-47.309-19.695c-18.24-18.496-19.304-37.837-19.078-61.934l-.036-12.558c-29.386-.975-52.753 5.023-77.184-18.619a65.59 65.59 0 0 1-19.92-46.681c-.174-30.086 19.23-46.358 38.621-66.192"/><path fill="#314cf6" d="m569.496 560.962.35 46.234c.039 6.687-.223 17.974.3 24.326-2.165 2.184-4.507 4.649-6.729 6.731a2599 2599 0 0 0-51.557 51.589c-21.566 20.03-33.495 40.011-66.868 40.069a64.99 64.99 0 0 1-47.309-19.695c-18.24-18.496-19.304-37.837-19.078-61.934l-.036-12.558c27.449-.832 58.002-.196 85.641-.095l10.526.112c9.195-17.624 14.589-23.511 28.641-37.425a1447 1447 0 0 1 23.826-23.122c11.069-8.164 22.286-11.52 35.593-13.447 1.279-.287 5.208-.618 6.7-.785"/><path fill="#2339b9" d="m464.21 635.629 10.526.112c-8.352 11.543-21.568 9.234-34.141 9.198l-43.206-.023c-4.967-.009-13.878-.55-18.111-.196l-.673 3.562-.036-12.558c27.449-.832 58.002-.196 85.641-.095"/><path fill="#2339b9" d="m569.496 560.962.35 46.234c.039 6.687-.223 17.974.3 24.326-2.165 2.184-4.507 4.649-6.729 6.731-.383-1.077-.992-1.825-1.48-2.839-.945-1.965-.59-63.09-.125-68.83.134-1.659.503-3.249.984-4.837 1.279-.287 5.208-.618 6.7-.785"/><path fill="#ca460c" d="M519.197 570.176c3.165 1.562 5.116 2.999 8.006 5.018a1447 1447 0 0 0-23.826 23.122c-14.052 13.914-19.446 19.801-28.641 37.425l-10.526-.112c11.901-29.831 32.972-44.722 54.987-65.453"/><path fill="#314cf6" d="M511.192 322.033c21.669-21.009 35.491-41.33 68.275-40.951a66.42 66.42 0 0 1 47.26 20.293c18.837 19.537 18.142 39.011 18.277 63.659l.006 9.465c27.786-.973 54.226-3.502 76.096 16.878a65.1 65.1 0 0 1 20.811 45.597c.489 18.504-5.805 33.799-18.513 47.32-6.311 6.715-14.012 13.557-19.953 20.394-4.321-3.297-12.023-11.194-16.056-15.187l-26.326-26.12c-5.33-5.295-11.234-11.555-16.9-16.299l-80.964.393c-20.518.038-39.375 2.132-58.268-6.284-3.813-1.983-6.07-3.25-9.622-5.633-12.237 8.246-26.279 14.197-41.278 14.053.375-7.108.071-16.856.061-24.121l-.065-45.567c5.4-6.475 14.8-15.243 20.966-21.414z"/><path fill="#f35618" d="M645.01 374.499c27.786-.973 54.226-3.502 76.096 16.878a65.1 65.1 0 0 1 20.811 45.597c.489 18.504-5.805 33.799-18.513 47.32-6.311 6.715-14.012 13.557-19.953 20.394-4.321-3.297-12.023-11.194-16.056-15.187l-26.326-26.12c-5.33-5.295-11.234-11.555-16.9-16.299l-80.964.393c-20.518.038-39.375 2.132-58.268-6.284.603-1.839 5.96-6.147 7.852-7.979 15.826-15.322 41.633-37.239 47.666-58.754z"/><path fill="#ca460c" d="m548.901 374.53 11.554-.072c-6.033 21.515-31.84 43.432-47.666 58.754-1.892 1.832-7.249 6.14-7.852 7.979-3.813-1.983-6.07-3.25-9.622-5.633 7.239-5.742 14.504-13.812 21.194-20.306 13.765-13.36 24.644-22.773 32.392-40.722"/><path fill="#2339b9" d="M548.901 374.53c6.081-12.206 35.458-9.533 47.065-9.541l49.038.045.006 9.465-84.555-.041z"/></svg>